<?xml version="1.0" standalone="no"?>
<!DOCTYPE svg PUBLIC "-//W3C//DTD SVG 20010904//EN"
 "http://www.w3.org/TR/2001/REC-SVG-20010904/DTD/svg10.dtd">
<svg version="1.0" xmlns="http://www.w3.org/2000/svg"
 width="1000.000000pt" height="1000.000000pt" viewBox="0 0 1000.000000 1000.000000"
 preserveAspectRatio="xMidYMid meet">
<metadata>
Created by potrace 1.15, written by Peter Selinger 2001-2017
</metadata>
<g transform="translate(0.000000,1000.000000) scale(0.100000,-0.100000)"
fill="#000000" stroke="none">
<path d="M0 5000 l0 -5000 5000 0 5000 0 0 5000 0 5000 -5000 0 -5000 0 0
-5000z m9970 0 l0 -4970 -4970 0 -4970 0 0 4970 0 4970 4970 0 4970 0 0 -4970z"/>
<path d="M3328 8639 c-16 -9 -18 -32 -18 -255 l0 -245 43 3 42 3 3 185 3 185
87 -167 c48 -92 95 -177 105 -188 14 -17 27 -20 70 -18 l52 3 0 250 c0 234 -1
250 -18 253 -10 2 -29 1 -43 -2 l-24 -6 0 -177 0 -176 -51 99 c-100 195 -130
245 -156 255 -31 12 -73 11 -95 -2z"/>
<path d="M3945 8631 c-92 -43 -130 -113 -130 -241 0 -98 15 -148 57 -196 58
-65 202 -83 295 -36 87 45 129 138 121 267 -6 93 -36 157 -91 193 -35 23 -53
27 -126 30 -68 2 -94 -1 -126 -17z m186 -87 c33 -29 49 -77 49 -149 0 -118
-43 -175 -132 -175 -64 0 -86 13 -109 63 -40 89 -17 230 45 269 39 24 116 20
147 -8z"/>
<path d="M4567 8643 c-4 -3 -7 -118 -7 -255 l0 -249 48 3 47 3 3 244 c2 189
-1 246 -10 253 -16 9 -72 11 -81 1z"/>
<path d="M4788 8640 c-16 -10 -18 -33 -18 -255 l0 -245 45 0 45 0 0 207 c0
113 2 204 5 201 3 -3 36 -95 74 -204 l69 -199 48 0 49 0 63 175 c96 271 91
269 91 28 l1 -208 45 0 45 0 0 245 c0 240 0 244 -22 256 -27 15 -119 4 -134
-15 -6 -8 -36 -85 -68 -170 -32 -86 -61 -156 -65 -156 -4 0 -31 68 -61 151
-29 83 -60 159 -69 170 -19 24 -116 36 -143 19z"/>
<path d="M5591 8637 c-11 -15 -171 -468 -171 -487 0 -7 18 -10 47 -8 l47 3 21
55 21 55 94 0 93 0 20 -57 19 -58 49 0 c42 0 49 3 49 19 0 30 -159 474 -173
483 -20 13 -104 9 -116 -5z m93 -192 c38 -116 38 -115 -39 -115 -36 0 -65 3
-65 7 0 22 65 202 71 195 4 -4 18 -43 33 -87z"/>
<path d="M6041 8624 c-94 -47 -139 -142 -128 -270 12 -160 140 -246 318 -216
113 20 109 14 109 151 0 89 -3 121 -14 130 -9 8 -46 11 -103 9 l-88 -3 -3 -37
-3 -38 55 0 56 0 0 -59 c0 -66 -5 -71 -72 -71 -92 0 -151 66 -151 169 0 146
110 216 253 162 30 -12 58 -21 63 -21 13 0 7 68 -8 84 -23 23 -81 36 -161 36
-56 0 -81 -5 -123 -26z"/>
<path d="M6462 8642 c-9 -7 -12 -64 -10 -253 l3 -244 143 -3 142 -3 0 41 0 40
-95 0 -95 0 0 70 0 70 75 0 c81 0 100 13 88 58 -5 20 -12 22 -84 22 l-79 0 0
60 0 60 83 0 c45 0 88 4 95 9 8 5 12 22 10 42 l-3 34 -130 3 c-71 1 -136 -2
-143 -6z"/>
<path d="M4786 7484 c-345 -44 -746 -187 -1028 -365 -329 -208 -619 -498 -827
-827 -134 -212 -267 -541 -325 -802 -76 -344 -76 -756 0 -1100 58 -261 191
-590 325 -802 208 -329 498 -619 827 -827 212 -134 541 -267 802 -325 344 -76
756 -76 1100 0 261 58 581 187 800 324 322 200 621 499 829 828 134 212 267
541 325 802 76 344 76 756 0 1100 -58 261 -191 590 -325 802 -208 329 -498
619 -827 827 -288 182 -686 322 -1042 366 -154 19 -482 18 -634 -1z m-1332
-826 c-4 -40 -32 -406 -64 -813 l-57 -740 -2 813 -1 812 65 0 65 0 -6 -72z
m3436 8 l0 -64 -37 4 c-21 2 -366 29 -768 59 -401 30 -746 56 -765 58 -19 2
326 5 768 5 l802 2 0 -64z m-1698 -117 c55 -14 140 -101 161 -163 33 -97 19
-187 -43 -265 -69 -87 -190 -129 -284 -97 -90 31 -137 70 -178 147 -33 62 -32
175 1 239 68 132 189 180 343 139z m48 -633 c142 -43 241 -115 316 -227 52
-79 53 -95 2 -149 -18 -19 -60 -66 -93 -105 -33 -38 -72 -83 -87 -98 -16 -16
-28 -32 -28 -35 -1 -4 -29 -38 -64 -75 l-63 -69 -399 31 c-219 17 -402 31
-406 31 -18 0 7 177 40 285 69 223 233 381 442 425 67 14 275 5 340 -14z m841
-22 c36 -18 63 -75 54 -112 -5 -22 -103 -142 -347 -423 -46 -53 -105 -122
-133 -155 -27 -32 -67 -76 -87 -99 l-37 -40 -33 36 c-18 20 -52 48 -75 64 -24
15 -43 30 -43 32 0 3 107 129 238 281 130 151 261 304 290 339 77 91 114 108
173 77z m-684 -792 c49 -32 87 -77 78 -92 -10 -16 -142 -80 -165 -80 -15 0
-20 7 -20 26 0 40 42 174 54 174 6 0 30 -13 53 -28z m-902 -194 c18 -38 25
-44 63 -51 53 -10 55 -33 7 -71 -31 -25 -35 -33 -35 -77 l0 -50 -39 23 c-37
21 -40 22 -81 5 l-43 -16 6 52 c6 48 4 54 -25 84 -41 43 -33 63 26 63 42 0 47
3 68 40 13 22 25 40 28 40 3 0 14 -19 25 -42z m316 -27 c11 -36 15 -40 54 -46
58 -8 64 -28 20 -71 -30 -29 -35 -40 -35 -79 0 -49 -3 -51 -40 -30 -29 17 -86
20 -95 5 -15 -25 -27 -7 -23 38 2 39 -2 53 -25 83 -35 47 -28 69 23 69 39 0
61 14 80 51 16 29 28 23 41 -20z m315 -21 c14 -34 21 -40 57 -47 54 -11 61
-40 18 -76 -27 -22 -31 -32 -31 -76 0 -28 -3 -51 -6 -51 -4 0 -22 10 -42 22
-33 20 -36 21 -78 5 l-44 -16 6 52 c5 46 3 55 -20 82 -42 48 -35 61 34 69 28
3 39 10 54 40 11 20 23 36 28 36 4 0 15 -18 24 -40z m314 -5 c0 -39 23 -63 66
-70 54 -8 56 -22 10 -73 -31 -34 -34 -42 -29 -80 6 -48 -1 -52 -49 -22 -32 19
-71 19 -92 -1 -22 -20 -28 -7 -22 40 6 43 3 53 -19 79 -14 16 -25 39 -25 50 0
18 7 21 47 24 36 2 50 8 58 23 19 37 26 45 41 45 8 0 14 -7 14 -15z m314 -17
c3 -7 7 -25 10 -39 5 -23 13 -28 53 -35 62 -12 68 -35 19 -76 -32 -26 -36 -35
-34 -69 3 -50 -5 -56 -46 -34 -31 17 -39 17 -75 5 -23 -7 -44 -11 -47 -8 -3 4
0 24 7 47 11 38 11 41 -20 76 -17 20 -31 40 -31 46 0 12 43 29 75 29 16 0 29
11 44 35 21 36 39 45 45 23z m1136 -908 l0 -810 -66 0 -67 0 6 38 c3 20 31
385 63 810 32 424 60 772 61 772 2 0 3 -364 3 -810z m-1475 484 c0 -13 -38
-54 -114 -120 -63 -54 -116 -105 -119 -111 -2 -7 3 -16 12 -19 10 -4 54 28
131 95 113 99 155 121 155 82 0 -12 -45 -57 -119 -121 -79 -66 -118 -106 -114
-116 9 -24 29 -16 85 34 168 151 208 176 208 133 0 -12 -42 -56 -112 -117 -62
-53 -117 -101 -123 -106 -6 -5 -3 -14 6 -23 13 -14 28 -4 138 90 67 58 126
105 131 105 4 0 13 -7 20 -16 16 -18 21 -13 -187 -192 -163 -140 -191 -154
-245 -128 -17 9 -33 15 -35 13 -1 -2 89 -111 202 -243 175 -204 205 -244 205
-271 0 -55 -51 -88 -103 -67 -9 3 -86 88 -173 190 -86 101 -160 184 -164 184
-4 0 -15 -9 -25 -20 -26 -29 -36 -25 -75 25 -19 24 -38 44 -42 45 -5 0 -99
-78 -210 -174 -111 -96 -213 -178 -227 -181 -37 -9 -75 23 -79 69 -4 44 -12
35 235 248 l182 156 -130 153 c-182 212 -179 208 -179 262 0 37 5 51 31 76 24
25 39 31 73 31 23 0 51 -7 63 -15 12 -8 88 -92 168 -186 135 -156 174 -194
146 -141 -17 32 -13 67 10 96 38 48 344 307 359 304 8 -2 15 -12 15 -24z
m-1280 -1229 c402 -30 746 -56 765 -58 19 -2 -326 -5 -767 -5 l-803 -2 0 64 0
64 38 -4 c20 -2 366 -29 767 -59z"/>
</g>
</svg>
